<?xml version="1.0" encoding="UTF-8"?>
<svg width="40" height="40" viewBox="0 0 40 40" fill="none" xmlns="http://www.w3.org/2000/svg">
  <path d="M20 24C22.2091 24 24 22.2091 24 20C24 17.7909 22.2091 16 20 16C17.7909 16 16 17.7909 16 20C16 22.2091 17.7909 24 20 24Z" fill="#FFB800"/>
  <path d="M31.5 20C31.5 20.8284 31.1716 21.5 30.5 21.5C29.8284 21.5 29.5 20.8284 29.5 20C29.5 19.1716 29.8284 18.5 30.5 18.5C31.1716 18.5 31.5 19.1716 31.5 20Z" fill="#FFB800"/>
  <path d="M10.5 20C10.5 20.8284 10.1716 21.5 9.5 21.5C8.82843 21.5 8.5 20.8284 8.5 20C8.5 19.1716 8.82843 18.5 9.5 18.5C10.1716 18.5 10.5 19.1716 10.5 20Z" fill="#FFB800"/>
  <path d="M20 31.5C20.8284 31.5 21.5 31.1716 21.5 30.5C21.5 29.8284 20.8284 29.5 20 29.5C19.1716 29.5 18.5 29.8284 18.5 30.5C18.5 31.1716 19.1716 31.5 20 31.5Z" fill="#FFB800"/>
  <path d="M20 10.5C20.8284 10.5 21.5 10.1716 21.5 9.5C21.5 8.82843 20.8284 8.5 20 8.5C19.1716 8.5 18.5 8.82843 18.5 9.5C18.5 10.1716 19.1716 10.5 20 10.5Z" fill="#FFB800"/>
  <path d="M25.5 20C25.5 20.8284 25.1716 21.5 24.5 21.5C23.8284 21.5 23.5 20.8284 23.5 20C23.5 19.1716 23.8284 18.5 24.5 18.5C25.1716 18.5 25.5 19.1716 25.5 20Z" fill="#FFB800"/>
  <path d="M15.5 20C15.5 20.8284 15.1716 21.5 14.5 21.5C13.8284 21.5 13.5 20.8284 13.5 20C13.5 19.1716 13.8284 18.5 14.5 18.5C15.1716 18.5 15.5 19.1716 15.5 20Z" fill="#FFB800"/>
  <path d="M20 26.5C20.8284 26.5 21.5 26.1716 21.5 25.5C21.5 24.8284 20.8284 24.5 20 24.5C19.1716 24.5 18.5 24.8284 18.5 25.5C18.5 26.1716 19.1716 26.5 20 26.5Z" fill="#FFB800"/>
  <path d="M20 13.5C20.8284 13.5 21.5 13.1716 21.5 12.5C21.5 11.8284 20.8284 11.5 20 11.5C19.1716 11.5 18.5 11.8284 18.5 12.5C18.5 13.1716 19.1716 13.5 20 13.5Z" fill="#FFB800"/>
</svg>
